<?xml version="1.0" encoding="iso-8859-1"?>
<!-- Generator: Adobe Illustrator 16.0.0, SVG Export Plug-In . SVG Version: 6.00 Build 0)  -->
<!DOCTYPE svg PUBLIC "-//W3C//DTD SVG 1.1//EN" "http://www.w3.org/Graphics/SVG/1.1/DTD/svg11.dtd">
<svg version="1.1" xmlns="http://www.w3.org/2000/svg" xmlns:xlink="http://www.w3.org/1999/xlink" x="0px" y="0px" width="960px"
	 height="560px" viewBox="0 0 960 560" style="enable-background:new 0 0 960 560;" xml:space="preserve">
<g id="Layer_1" style="display:none;">

		<image style="display:inline;overflow:visible;" width="53" height="49" xlink:href="D:\Img\mavenhosting_logo.gif"  transform="matrix(4.2245 0 0 4.2245 396 162.9961)">
	</image>
</g>
<g id="Layer_2" style="display:none;">
</g>
<g id="Layer_3">
	<g>
		<radialGradient id="SVGID_1_" cx="172.3818" cy="268.7549" r="105.7024" gradientUnits="userSpaceOnUse">
			<stop  offset="0" style="stop-color:#61DD00"/>
			<stop  offset="1" style="stop-color:#87BF00"/>
		</radialGradient>
		<path style="fill:url(#SVGID_1_);" d="M281.868,259.498C281.866,237.662,218.271,209,218.271,209l27.938-16.667
			c0,0-10.625-25.333-35.958-25.333S144,197,144,197v-30c0,0-18.422-1.004-35.089,10.333S98.74,255.667,98.74,255.667l-25.219-14
			c0,0-10.625,0-10.625,30c0,30,64.323,55.667,64.323,55.667L98.818,343c0,0,9.007,18,30.341,24.996
			C150.492,374.992,200,338.333,200,338.333v31.665c0,0,8.829,4.335,31.496-11.665S247.742,279,247.742,279l28.451,14
			C276.193,293,281.869,281.333,281.868,259.498z M217,247.25c0,0-2.75,6.995-2.75,19.248S214,301,214,301s-7.5-4-19.75,3
			s-16.05,7-20.3,11.25s-4.771,5.566-4.771,5.566S167,318,160,311s-26-16.75-32.25-20.25s-2.25-2.5-2.25-2.5s3.75-2.5,3.75-8.25
			s5.25-39.25,1-45.25c0,0,19.734,0.036,31-6c15.465-8.286,18-11.5,18-11.5s6,11,13,15.5S206.75,244,217,247.25
			c0,0,0.19,0.061,0.488,0.155c0.089,0.028,0.184,0.058,0.269,0.085c0.103,0.033,0.212,0.067,0.329,0.104
			c0.073,0.023,0.14,0.044,0.209,0.066c0.464,0.147,0.994,0.315,1.492,0.473c0.51,0.162,0.893,0.283,1.169,0.371
			c0.043,0.014,0.087,0.028,0.126,0.04c0.076,0.024,0.137,0.043,0.193,0.062c0.114,0.036,0.195,0.062,0.239,0.076
			c0.047,0.015,0.046,0.014,0,0c-0.04-0.013-0.117-0.037-0.239-0.076c-0.058-0.019-0.122-0.039-0.193-0.062
			c-0.037-0.012-0.084-0.027-0.126-0.04c-0.316-0.101-0.728-0.231-1.169-0.371c-0.411-0.13-0.907-0.288-1.492-0.473
			c-0.071-0.022-0.142-0.045-0.209-0.066c-0.107-0.034-0.215-0.068-0.329-0.104c-0.097-0.031-0.187-0.06-0.269-0.085
			C217.326,247.354,217.173,247.305,217,247.25z"/>
		<radialGradient id="SVGID_2_" cx="203.5747" cy="254.1738" r="0.0061" gradientUnits="userSpaceOnUse">
			<stop  offset="0" style="stop-color:#61DD00"/>
			<stop  offset="1" style="stop-color:#87BF00"/>
		</radialGradient>
		<path style="fill:url(#SVGID_2_);" d="M203.583,254.176c-0.006-0.001-0.011-0.003-0.017-0.004
			C203.571,254.173,203.578,254.175,203.583,254.176z"/>
		<radialGradient id="SVGID_3_" cx="203.5249" cy="254.1611" r="0.0303" gradientUnits="userSpaceOnUse">
			<stop  offset="0" style="stop-color:#61DD00"/>
			<stop  offset="1" style="stop-color:#87BF00"/>
		</radialGradient>
		<path style="fill:url(#SVGID_3_);" d="M203.566,254.172c-0.024-0.006-0.055-0.014-0.083-0.021
			C203.512,254.158,203.541,254.165,203.566,254.172z"/>
		<radialGradient id="SVGID_4_" cx="203.8574" cy="254.248" r="0.0028" gradientUnits="userSpaceOnUse">
			<stop  offset="0" style="stop-color:#61DD00"/>
			<stop  offset="1" style="stop-color:#87BF00"/>
		</radialGradient>
		<path style="fill:url(#SVGID_4_);" d="M203.854,254.247C203.863,254.25,203.865,254.25,203.854,254.247L203.854,254.247z"/>
		<radialGradient id="SVGID_5_" cx="203.4453" cy="254.1406" r="0.0278" gradientUnits="userSpaceOnUse">
			<stop  offset="0" style="stop-color:#61DD00"/>
			<stop  offset="1" style="stop-color:#87BF00"/>
		</radialGradient>
		<path style="fill:url(#SVGID_5_);" d="M203.483,254.15c-0.025-0.007-0.049-0.013-0.076-0.02
			C203.436,254.138,203.458,254.144,203.483,254.15z"/>
		<radialGradient id="SVGID_6_" cx="203.6523" cy="254.1943" r="0.0507" gradientUnits="userSpaceOnUse">
			<stop  offset="0" style="stop-color:#61DD00"/>
			<stop  offset="1" style="stop-color:#87BF00"/>
		</radialGradient>
		<path style="fill:url(#SVGID_6_);" d="M203.722,254.212c-0.038-0.01-0.084-0.021-0.139-0.036
			C203.636,254.19,203.682,254.202,203.722,254.212z"/>
		<radialGradient id="SVGID_7_" cx="203.7876" cy="254.2295" r="0.0482" gradientUnits="userSpaceOnUse">
			<stop  offset="0" style="stop-color:#61DD00"/>
			<stop  offset="1" style="stop-color:#87BF00"/>
		</radialGradient>
		<path style="fill:url(#SVGID_7_);" d="M203.854,254.247c-0.017-0.004-0.063-0.017-0.132-0.035
			C203.793,254.231,203.836,254.243,203.854,254.247z"/>
		<radialGradient id="SVGID_8_" cx="203.083" cy="254.0459" r="0.2372" gradientUnits="userSpaceOnUse">
			<stop  offset="0" style="stop-color:#61DD00"/>
			<stop  offset="1" style="stop-color:#87BF00"/>
		</radialGradient>
		<path style="fill:url(#SVGID_8_);" d="M203.408,254.13c-0.164-0.042-0.379-0.099-0.649-0.169
			C202.998,254.023,203.224,254.083,203.408,254.13z"/>
		<radialGradient id="SVGID_9_" cx="172.7188" cy="268.4473" r="30.4239" gradientUnits="userSpaceOnUse">
			<stop  offset="0" style="stop-color:#61DD00"/>
			<stop  offset="1" style="stop-color:#87BF00"/>
		</radialGradient>
		<path style="fill:url(#SVGID_9_);" d="M176.48,236.001c0,0-1.478,2.085-10.854,7.747c-6.83,4.124-19.135,4.734-19.135,4.734
			c2.842,3.604,0.644,24.658,0.828,28.243c0.184,3.584-2.074,5.264-2.074,5.264s-2.525-0.495,1.483,1.486
			c4.008,1.98,16.167,7.451,20.755,11.591c4.588,4.139,6.036,5.825,6.036,5.825s0.283-0.838,2.796-3.623
			c2.514-2.785,4.883-2.907,12.295-7.664c7.414-4.757,12.217-2.504,12.217-2.504s-0.557-13.879-0.95-21.518
			c-0.393-7.639,1.097-12.088,1.097-12.088c-6.494-1.697-11.387-5.666-15.895-8.247C180.574,242.668,176.48,236.001,176.48,236.001z
			"/>
		<radialGradient id="SVGID_10_" cx="202.0664" cy="253.7803" r="0.0853" gradientUnits="userSpaceOnUse">
			<stop  offset="0" style="stop-color:#61DD00"/>
			<stop  offset="1" style="stop-color:#87BF00"/>
		</radialGradient>
		<path style="fill:url(#SVGID_10_);" d="M202.183,253.811c-0.079-0.021-0.157-0.041-0.233-0.061
			C202.031,253.771,202.108,253.791,202.183,253.811z"/>
		<radialGradient id="SVGID_11_" cx="201.4639" cy="253.6221" r="0.3555" gradientUnits="userSpaceOnUse">
			<stop  offset="0" style="stop-color:#61DD00"/>
			<stop  offset="1" style="stop-color:#87BF00"/>
		</radialGradient>
		<path style="fill:url(#SVGID_11_);" d="M201.95,253.75c-0.287-0.075-0.607-0.159-0.973-0.254
			C200.977,253.495,201.416,253.61,201.95,253.75z"/>
		<radialGradient id="SVGID_12_" cx="202.6953" cy="253.9443" r="0.0464" gradientUnits="userSpaceOnUse">
			<stop  offset="0" style="stop-color:#61DD00"/>
			<stop  offset="1" style="stop-color:#87BF00"/>
		</radialGradient>
		<path style="fill:url(#SVGID_12_);" d="M202.759,253.961c-0.042-0.011-0.084-0.022-0.126-0.033
			C202.675,253.939,202.719,253.95,202.759,253.961z"/>
		<radialGradient id="SVGID_13_" cx="202.4077" cy="253.8691" r="0.1641" gradientUnits="userSpaceOnUse">
			<stop  offset="0" style="stop-color:#61DD00"/>
			<stop  offset="1" style="stop-color:#87BF00"/>
		</radialGradient>
		<path style="fill:url(#SVGID_13_);" d="M202.632,253.928c-0.137-0.036-0.286-0.075-0.449-0.117
			C202.332,253.849,202.483,253.889,202.632,253.928z"/>
	</g>
</g>
</svg>
